<?xml version="1.0" encoding="utf-8"?>
<!-- Generator: Adobe Illustrator 19.2.0, SVG Export Plug-In . SVG Version: 6.00 Build 0)  -->
<svg version="1.1" id="svg2" xmlns="http://www.w3.org/2000/svg" xmlns:xlink="http://www.w3.org/1999/xlink" x="0px" y="0px"
	 viewBox="0 0 2040.5 1178.5" style="enable-background:new 0 0 2040.5 1178.5;" xml:space="preserve">
<style type="text/css">
	.st0{fill:#FDFCEC;}
	.st1{display:none;}
	.st2{display:inline;fill:none;stroke:#010101;stroke-width:5;stroke-miterlimit:10;}
	.st3{display:inline;fill:none;stroke:#EC2227;stroke-width:3;stroke-miterlimit:10;}
	.st4{display:inline;fill:#405B54;}
	.st5{fill:#9ACDC8;}
</style>
<g id="DC">
	<path class="st0" d="M958.7-15.5L801.1,144.9L582.8,362c1.4,1.4,3.2,3,3.7,3.4c0.7,0.5,4.5,5.6,5,6.6c0.5,1,7.1,10.5,7.1,11
		c0,0.5,1.3,3.5,2.1,5c0.7,1.5,2.8,7.2,3.1,7.9s2.2,4.4,2.5,5c0.3,0.6,6.7,15.2,7.9,17.3c1.3,2.2,6.9,10.7,8.5,12.2
		c1.5,1.5,4.7,4.7,5.8,5.8c1.1,1.1,5.3,5.1,6.3,5.9c1,0.7,3.1,3,3.8,3.2c0.6,0.2,5.4,4.6,6.5,5.9s7.1,7.5,8,9.2
		c0.8,1.7,2.6,4,3.1,5.1c0.5,1.2,4.8,7.2,5.1,7.7c0.3,0.5,3,5.5,3.4,6.8c0.4,1.3,1.2,5.1,2.1,6.1c0.8,1,2.3,4,3.5,5.9
		c1.2,1.9,4.5,10,5.1,11.3c0.6,1.4,5.3,10.6,6.5,12.4c1.2,1.8,5.6,7.8,7.1,9.2c1.5,1.4,8.7,9.3,10.6,10.9c1.9,1.6,10,7.6,11.3,8.3
		c1.3,0.7,9.7,5.1,13.1,6.2c3.3,1.1,16,6.3,17.9,7c1.8,0.7,8.1,4.3,11,4.9c2.9,0.6,5.9,0.6,6.8,0.4c1-0.2,2.9-1.3,4.3-1.7
		c1.4-0.4,3.6-1.6,4.2-1.6c0.5,0,2.6-0.9,3.8-0.9c1.2,0,3,0,4.2,0c1.2,0,2.8,0.7,3.8,0.9s3.8,1.5,3.8,1.5s2.2,0.3,3.3,0.5
		s2.2,0.1,3.4,0.1s3.6-0.3,4.9-0.3c1.3,0,4.4,0.7,6.5,1.1s6,1.6,6.6,1.6c0.6,0,4.9,0.8,5.6,1.1c0.6,0.2,5.6,1.4,6.2,1.4
		s2.9,0.7,4,0.8c1.1,0.1,2.2-0.1,2.5-0.1c0.4,0,3.1,0.4,3.1,0.4s4.3,0.8,5,0.8s2.7-0.2,3.6-0.2c0.8,0,1.9,0,2.3,0s12.3,0,13.3,0
		s5.1,0,5.1,0l-0.1,1.4l-8-0.3c0,0-2.5-0.4-3.4-0.2c-0.8,0.1-3.8-0.1-4.3-0.1s-4.7,0.1-4.7,0.1s-2.9,0.1-3.3,0.1s-2.1-0.3-2.5-0.3
		c-0.5,0-0.8-0.1-1.8-0.1s-1.6-0.1-2.1-0.4c-0.4-0.2-1.1,0-1.5-0.1c-0.4-0.1-3.1-0.2-3.6-0.2c-0.4,0-6.9-1.6-7.9-1.6s-3-0.3-4-0.7
		c-1-0.4-6.4-1.4-7.6-1.8s-4.3-0.3-5.2-0.6c-0.9-0.3-4.7-0.5-6.4-0.5s-3.6-0.4-5.1-0.4s-3.2-0.2-3.5-0.4c-0.3-0.1-2.9-0.9-4.2-1.4
		c-1.3-0.5-3.3-1.1-6.1-1.1c-2.8,0.1-9,2.6-12.1,3.5c-3,0.8-5.4,2-11.5-0.6c-6.1-2.6-11.2-5.3-12.7-5.7c-1.5-0.4-5-1.7-6.1-2.3
		c-1.1-0.7-15.8-6.3-17-6.9s-3.4-2.2-4.6-2.7c-1.2-0.5-3.6-2.1-4.3-2.6c-0.7-0.5-6.6-5.3-8-6.7c-1.4-1.4-2-1.8-3-3
		c-1.1-1.2-3-3.2-4-4c-0.9-0.8-3-3.4-3.7-4.2s-3-3.7-3.3-4.3c-0.3-0.5-4.4-6.5-6.7-11.3c-2.3-4.8-5.6-11.6-6.2-12.6
		c-0.6-1-3.9-7.6-3.9-7.6s-2.5-6.1-3.6-7.6c-1-1.4-2.4-5-3-5.7s-1.4-2.9-2-3.8c-0.5-0.9-1.9-3.5-2.9-4.9c-1.1-1.4-3.1-5.2-3.7-5.8
		c-0.6-0.5-3.6-4.3-4.3-4.8c-0.7-0.5-5.5-5.1-6.3-6.1s-5.5-5.3-6-5.5c-0.4-0.2-6-5.8-6.7-6.3c-0.7-0.4-5.1-4.8-6.2-6
		c-1-1.1-4.9-6.5-5.7-7.7c-0.8-1.3-2.6-4.3-3.2-5.4c-0.5-1.1-3.2-6-3.9-7.6s-3.1-7-3.8-7.9c-0.6-0.9-7.9-17.4-8.6-18.4
		c-0.6-1-1.8-3.3-2.2-4.1c-0.4-0.7-0.7-2.3-1.2-2.9c-0.5-0.6-3.6-5.9-4.2-6.6c-0.5-0.7-3.2-4.2-4.3-5c-0.3-0.3-1.8-1.7-3.4-3.4
		l-10.8,10.7c0,0,0,0,0,0.1c0.4,0.9,0.8,1,1.1,1.7c0.4,0.7,1.5,1,1.9,1.4c0.3,0.4,0.8,1.3,1.4,1.9c0.5,0.6,0.6,0.4,0.7,1
		c0.1,0.6,0.4,0.6,0.8,1c0.4,0.4,1.1,1.2,1.1,1.7c0.1,0.4-0.1,0.5,0.2,1.1c0.3,0.6,0.3,1.5,0.4,1.8s0.4,0.9,0.9,0.9s0.5,0.1,0.9,0.3
		c0.3,0.2-0.1,0.7,0.4,0.6c0.3,0,0.5-0.1,0.6-0.2c-0.1,0.1-0.1,0.3-0.1,0.5c0,0.4,0.6,0.7,0.6,0.7s0.3,0.3,0.1,0.7
		c-0.1,0.4,0.6,0,0.7,0.8c0,0.8-0.2,0.4,0.2,1s1.2,0.1,1.2,0.8s0.4,0,0.4,0.8c0,0.7,0,0.8,0.3,1c0.4,0.1,0.6,1.5,0.2,1.4
		c-0.4-0.1-0.6-1-0.8-0.2s0.3,1.3,0.3,1.3s0,0-0.1,0.7c-0.1,0.7,0,1.1,0.4,1.6c0.4,0.4,0.7,0.4,0.7,0.9c0,0.4,0.4,0.3,0.4,0.3
		s0.2,0.1,0.4,0.7c0.1,0.6,0.3,0.7,0.6,1.1s0.2,0.3,0.2,1.3c0,1-0.2,1.2-0.2,1.6s0.2,0.8,0.2,0.8s-0.2,0.6-0.2,1.3
		c0,0.7,0.1,0.7,0.1,0.7s0-0.1-0.1,0.4c-0.1,0.6,0,0.8,0.3,1s-0.1,0,0.3,0.8c0.4,0.8,0,1.3,0.8,1.4c0.8,0.1,1.1-0.5,1.1,0.5
		c0,1.1-0.5,0.8,0,1.8c0.5,0.9,0.1,1.5,0.7,1.8c0.5,0.3,0.6,1.1,1.3,1.6c0.7,0.4,0.7,0.9,1.5,1.5c0.7,0.6,0.7,0.2,0.9,0.7
		c0.2,0.5,0.7,2.3,0.7,2.3l0.8,0.6c0,0,0.6,0.1,0.7,0.6c0.1,0.4,0.7,0.9,0.7,0.9s0.6,1.4,0.8,1.1c0.2-0.3,0.6-0.1,0.7,0.5
		c0.1,0.7,0.3,0.8,0.3,0.8s0.3,0.4,0.3,1c0,0.5,0.2,1.3,0.8,1.3s1.1,0.9,1.1,1.2c0,0,0.8,0.1,0.9,0.7c0.1,0.5,0.4,0.5,0.4,0.9
		c0,0.4,0.4,0.2,0.5,0.5c0.1,0.3,1.3,0.7,1.3,0.7s0.6-0.4,1,0.4c0.4,0.8,0.4,0.8,1,1.4c0.6,0.5,0.3,0,0.7,0.6
		c0.4,0.7,0.1,0.3,0.1,0.7c0,0.4-0.5,0.9,0.1,1.2c0.7,0.3,1.1,0.3,1.1,0.8s-0.3,0.7,0.2,0.7c0.5,0,1.2,0.4,0.9,0.4
		c-0.3,0.1-0.8,0-0.8,0.8c0.1,0.7,0.6,0.3,0.6,0.3l0.2,0.4l0.1-0.7c0,0,0.6-0.2,0.7,0.3s0.5,1.3,0.5,1.3l0.8,0.6
		c0,0,0.6-0.5,0.7-0.2c0.1,0.3,0.3,0.4,0.9,0.4c0.6,0,0.4,0.1,0.8,0.3c0.4,0.1-0.3,0.4,0.5,0.5c0.8,0.1,1.1-0.4,1.7,0
		c0.5,0.4,0.5,0.6,0.8,0.6s0.1,0,0.5,0.1c0.4,0.2,0.5,0.3,0.3,0.4c-0.2,0.1-0.4,0.4-0.5,0.3c-0.1-0.1-0.5,0.1-0.5,0.4
		s-0.1,0.5-0.3,0.4c-0.2-0.1-0.7-0.4-0.7-0.4s-0.5-0.3-0.5-0.1s0,0.6,0.2,0.8c0.2,0.2,0.5,0.3,0.5,0.4s0.2,0.6,0.2,0.6
		s0.2,0.1,0.1,0.3c-0.1,0.1-0.2,1.2,0,1s0.2-0.6,0.5-0.5c0.3,0,0.6-0.3,0.7,0.1c0.1,0.4,0,0.4,0.1,0.7c0,0.2,0.2,0.1,0.2,0.5
		c0,0.4,0.2,0.6,0.4,0.5c0.2,0-0.1-0.3,0.2-0.3s0.7-0.2,0.7,0.1c0,0.3-0.3,0.5,0,0.9c0.3,0.3,0.6,0.1,0.7,0.2
		c0.1,0.1,0.5,0.7,0.5,0.5c0-0.1,0.2-0.2,0.2-0.2s0,0,0.4,0c0.3,0,0.2,0,0.2,0.4c0,0.4-0.1,0.9,0.1,0.9c0.3,0,0.6-0.2,0.8,0.1
		c0.1,0.3,0.5,0.2,0.6,0.5c0.1,0.3,0.2,0.3,0.4,0.3c0.2,0,0.1-0.4,0.3-0.4c0.2,0,0.3,0.2,0.3,0.3c0,0.1,0.1-0.1,0.2,0.5
		c0,0.7,0.3,1,0.4,1.2c0.1,0.2,0.5,0.8,0.5,0.8s0.3,0.5,0.7,0.5c0.4,0,1.7,0,1.9,0.1c0.2,0,0.7,0.1,0.7,0.5c0,0.4,0,0.4,0,0.8
		c0,0.4,0.1,1.2,0.1,1.2s0,0.2,0.4,0.2c0.4,0,0.9-0.1,0.9,0.1s0-0.1-0.2,0.4c-0.2,0.4-0.3,0.4-0.1,0.7c0.2,0.3,0.8,0.8,1.2,0.8
		c0.3,0,0.6,0.1,1.1,0.5c0.5,0.4,0.4,0.4,0.8,0.7s0.7-0.2,1.2,0.4c0.5,0.6,0.5,0.5,0.8,0.9c0.2,0.4,0.4,0.4,0.8,0.7
		c0.4,0.3,1.1,0.9,1.1,0.9s0.8,0.4,1,0.4s0.7-0.3,0.9,0s0.6,0.4,0.9,0.4s1,0.1,1,0.5s0.2,1.2,0.3,1.6c0.1,0.4,0.4,1.5,0.4,1.7
		s1.1,1.9,1.4,2.1c0.2,0.2,0.5,0.6,1.2,1.1c0.7,0.5,1.2,0.7,1.9,0.8c0.6,0.1,1.3,1,1.8,1.2c0.4,0.2,0.9,0.6,1.1,0.8
		c0.2,0.1,0.8,0.6,1.1,0.7s0.6-0.1,0.6-0.1l0.5-0.6l0.4-0.2c0,0,0.2,0.4,0.6,0.4c0.4,0,0.4-0.4,0.6-0.4s0.7-0.4,0.7-0.4
		s0.1,0.1,0.5,0.1c0.4,0,0.7,0.4,0.4,0.5c-0.2,0.1-0.4-0.1-0.7-0.1c-0.2,0-0.5,0.7-0.5,0.7s0.1,0.9,0.5,1c0.3,0,0.5,0.6,0.5,0.6
		l-0.8,0.5l-0.9-0.8l-0.1,0.3l1,1.1l0.9-0.9c0,0,0.4,0.2,0.6,0.2s0.4-0.2,0.5,0.1s-0.4,0.4-0.8,0.6c-0.4,0.2-0.4,0.6-0.4,1
		c0,0.4,0.4,0.6,0.4,1c0,0.4-0.3-0.1-0.3,0.7s0.5,2.9,0.8,3.7c0.2,0.8,0.9,2.1,0.9,2.3c0,0.2,0.1,1,0.4,1.3c0.3,0.3,0.9,0.9,1.1,1.2
		c0.1,0.2,0.9,1.2,1.2,2.3c0.2,1.1,0.6,1.9,0.8,2.4c0.1,0.5,0.7,1.8,1,2.3c0.2,0.5,0.8,0.1,0.8,1.3c0,1.2-0.4,0.6-0.5,1
		c0,0.4,0,0.4,0,0.9s0,0.9-0.3,1.3c-0.2,0.4-0.5,0.7-0.5,1.3s-0.1,1,0.2,1.4c0.4,0.4,0.7,0.5,0.5,0.9c-0.1,0.4-0.5,0.2-0.5,0.2v0.6
		c0,0-0.2,0.1-0.4,0.8c-0.1,0.7-0.4,0.9-0.5,1.3c0,0.4-0.1,1.3-0.1,1.6c0,0.3-0.3,0.7,0,0.9c0.3,0.2,0,0.3,0,0.3s-0.1,0.1,0.2,0.4
		s0.6,1.3,0.7,0.8c0.1-0.5,0.2-0.4,0.5-0.1s0,0.7,0,1.2c0.1,0.4,1,1.1,1.6,1.5c0.6,0.4,0.8,0,1.1,1.2s0.6,1.1,1,1.8
		c0.4,0.6,1.3,0.9,1.9,1c0.5,0.1,0.9,0.8,0.9,0.8s0.9,0.3,1,0.8c0.1,0.5-0.4,0-0.1,0.6c0.2,0.5,0.5,0.6,0.8,0.6
		c0.3,0,0.2-0.1,0.5-0.2s0.6-0.1,0.6,0.2c0,0.4,0.1,0.6,0.4,0.4c0.2-0.2-0.1-0.7,0.3-0.6c0.4,0.1,1.1,0.1,1.1,0.4c0,0.2,0.7,1,1,1
		c0.3,0,0.9,0.1,1.2,0.6s1.2,1.6,1.2,1.6s1.5,1,1.8,1.3c0.2,0.2,1.4,1.6,1.4,1.6s0.6,0.1,0.9,0.1s2.5,2.2,3,2.7s2.5,1.5,2.9,2.1
		c0.4,0.5,1.2,1.9,1.2,1.9s0,0.8,0.2,0.9c0.2,0.1-0.1,0,0,0.4c0.1,0.4,0.4,0.7,0.7,0.7c0.3,0,0.8-0.2,0.8,0.1s0.2,0.5,0.4,0.9
		c0.2,0.4,0.6,0.8,0.9,1c0.3,0.1,0.3,0.5,0.8,0.7c0.5,0.1,1.3,0.5,1.3,0.5s0.6,0.7,0.8,1s1.2,1.2,1.5,1.5c0.2,0.4,1.2,1.1,1.6,1.5
		c0.4,0.4,1.1,0.8,1.4,1.1c0.3,0.2,1.5,0.8,1.5,0.8s0.8,0.1,1.2,0.4c0.5,0.3,0.9,0.4,1.4,0.6s1.7,1.2,1.7,1.2s1.7,0.2,1.9,0.2
		s1.1-0.2,1.6,0c0.5,0.2,1.4,0.2,2,1c0.5,0.7,1.5,0.9,1.7,1.1c0.1,0.2,1.2,1,1.6,1.1c0.4,0,1.7,0.1,2.2,0.4c0.5,0.3,2.3,1,2.3,1
		s0.7,1.4,1.7,1.6c1,0.2,2.5,0,3,0s0.5,0,1.3,0.2c0.8,0.1,1-0.2,1.5-0.1s0.6,0.2,1.1,0.5c0.5,0.3,0.8,0.1,1.2,0.2
		c0.4,0.1,0.9,1.1,1.3,1.2c0.3,0.1,1.1,0.3,1.4,0.3s1.1,0,1.1,0s0.8-0.3,1.1-0.1c0.2,0.1,0.3,0.5,0.8,0.7s1.2,0.3,1.5,0.4
		c0.4,0.1,0.8,0.5,1.1,0.6c0.3,0.1,0.7,0.4,1.2,0.4c0.4,0,0.9,0.1,1.6,0.4c0.6,0.3,1.6,0.6,1.9,0.8c0.2,0.2,0-0.6,0.8,0.2
		c0.9,0.9,1,0.8,1.6,1c0.5,0.1,0.6,0,1.3,0.7c0.6,0.7,1.7,1.3,2.1,1.3s1.4,0,1.4,0s1.3-0.1,2,0.7c0.6,0.8,1,0.5,1.2,0.6
		c0.2,0.1,1,0.2,1.2,0.5c0.1,0.2,0.5,0.2,1.2,0.6c0.7,0.4,1.2,0.2,1.5,0.7c0.3,0.5,0.8,0.5,1.4,0.6c0.6,0,1.6,0,2,0.1
		s1.6,0.1,1.8,0.1c0.2,0,0.4-0.1,0.7-0.2c0.3-0.1,0.3-0.1,0.3-0.1s-0.1,0.3,0.5,0.3c0.6,0,0.1-0.4,0.7-0.4c0.6,0,0.3-0.2,0.8-0.3
		c0.5-0.1,0.6,0.2,1.2,0.2c0.5,0,0.2-0.4,0.7-0.4c0.5,0,0.4-0.1,1,0.1c0.6,0.2,1.7-0.4,1.7-0.4s0-0.1,0.7,0s1.1,0.2,1.3,0.2
		c0.2,0,1.2-0.5,1.2-0.5s0.9,0,1.4,0s0.7,0,0.9-0.3c0.2-0.3-0.3-1.3-0.2-1.6c0.1-0.3,0.8,0.1,0.8,0.1s0.8,0.9,1.1,1.2
		c0.4,0.4,0.7,0.5,0.9,0.7c0.2,0.2,0.8-0.2,1.2-0.2s0.8-0.6,1.3,0c0.5,0.6,0.8,0.8,1.3,0.7c0.5-0.1,0.6-0.5,1-0.5c0.4,0,0.7,0,1.2,0
		s1.5,0.1,1.5,0.1s0.6,0.5,1.1,0.5c0.5,0,1.7-0.4,1.7-0.4s0.9,0.1,1.3,0.1c0.4,0,1.4-0.4,1.8-0.4s0.8,0.3,1.2,0.5
		c0.3,0.1,1.2,0.4,1.6,0.5c0.3,0.1,1.7,0,2,0c0.2,0,0.2-0.2,0.9-0.1c0.7,0.1,2.1,0.4,2.2,0.4c0.2,0,2.2,0,2.8,0.1
		c0.6,0.1,2.6-0.4,3.4,0.1c0.7,0.5,1,0.1,1.8,0.5c0.8,0.4,1.7,0.2,2.1,0.1c0.4,0,1.4-0.3,1.8,0.1c0.4,0.5,1.4,0.6,1.7,0.7
		c0.3,0,2.1,0.6,2.3,0.7c0.3,0.1,2.8,0.6,3.5,0.8c0.7,0.1,2.5,0.8,2.5,0.8s1.2,1,1.8,1s2.9,0.5,3.5,0.5c0.6,0,2.5,0.6,3.1,0.8
		c0.6,0.2,1.3,0.2,2.1,0.7c0.7,0.4,0.3,0.5,0.7,1c0.4,0.4,0.9,0,1.6,0.4c0.7,0.4,2.2,0.7,2.6,0.9s0.5-0.2,0.8-0.1
		c0.3,0,1.2,0.5,1.8,0.9s1.2,0.8,2.1,1.5c0.8,0.7,2.4,0.9,2.8,1.2c0.4,0.3,1.4,1,1.9,1.1c0.5,0,1.5-0.1,2.1,0
		c0.6,0.1,1.1,0.2,1.1,0.2s-0.3,0.3,0.2,0.4c0.6,0.1,2,0.3,3,0.7c1.1,0.3,1.7,0.1,2.6,0.6c1,0.5,1.9,0.7,2.2,0.7
		c0.2,0,1.2,0.5,1.7,0.6c0.5,0.1,1.3,0,2.2,0.9c0.8,0.9,0.6,1.1,1.4,1.2c0.7,0.1,0.9,0.1,1.5,0.1c0.5,0,1.2,0.6,1.2,0.6
		s0.3,0.8,0.7,0.8s1-0.1,1.2,0.1s1.2,1.5,1.7,1.7c0.5,0.1,0.9,0,1.2,0c0.4,0,0.6,0.2,1,0.3c0.4,0,1.2,0.6,1.2,0.6l1.1,0.4
		c0,0,0.9,0.3,1.4,0.3c0,0,1.2,0.3,1.4,0.6c0.2,0.2,0,0.1,0.2,0.5c0.2,0.3,0.7,1,0.7,1.2s0.4,1.1,0.4,1.1s0.4,0.3,0.8,0.7
		c0.3,0.4,1.1,0.6,1.1,0.6s0.4,1.2,0.7,1.5c0.2,0.4,0.5,0.1,0.5,0.1l-0.3-0.5c0,0-0.2-0.4-0.5-0.9c-0.2-0.5-0.6-0.8-0.6-0.8l0.5-0.2
		c0,0,0.8,0.4,0.9,0.7c0.1,0.2,1,0.9,1,0.9s0.6,0,1-0.1c0.4-0.1,1.3-0.8,1.3,0s0.2,1.2,0,1.4s-0.5,1.8,0,2.8
		c0.5,1.1,1.2,2.6,1.8,2.8c0.6,0.1,1.2,0.5,1.2,0.7c0,0.2,0.4,1.1,0.4,1.3s-0.4,20.3-0.4,21.1c0,0.7,0.2,3.7,0.8,5.5
		c0.6,1.8,2.3,6.9,2.4,7.4c0.1,0.5,1.9,4.3,2.3,5c0.4,0.7,0.6,1.3,0.6,1.3s-0.3-0.1-0.3,0.6s0.5,1.6,0.5,1.6l1.7,0.2
		c0,0,2.2,4.9,4.6,7.1c2.4,2.2,6.9,5.2,6.9,5.2s-0.8,2.6-0.8,3.3s-0.2,1.3,0,2.3c0.2,1,0,3.2,2,5.9c2.1,2.7,11.4,12.3,17.3,18.2
		s16.1,15.8,17,16.6c0.8,0.7,7.7,7.4,13.7,12c6,4.6,7.3,5.4,8,5.3c0.6,0,1.4-0.4,2-0.7c0.6-0.4,1.6-0.5,1.6-1.3c0-0.8,0.1-0.7,0.2-2
		c0.1-1.2,0-2.1-0.3-3.2c-0.4-1.1-1.1-2.1-1.4-2.7c-0.3-0.6-0.7-1.6-0.8-2.3s-0.3-2.2-0.6-3.8c-0.3-1.6-0.8-3-1.1-3.6
		c-0.3-0.6-3-3.4-5-4.1c-1.9-0.7-4.6-1.4-5.4-2.1c-0.8-0.7-4.1-2.3-5-4.7c-0.8-2.4-1.4-4.7-0.4-5.7c1-1,3.5-3.1,4.4-3.6
		c0.8-0.4,2.5-0.9,3.6-1.1c1-0.1,2.9,0,3.9,0s2.4-0.1,3.3-0.2c0.9-0.1,2.1-0.5,2.4-1.5c0.4-1,0.5-1.6,0.1-2.5
		c-0.4-0.9-0.5-1.2-0.7-1.8s0.3-1.2,1.1-1.6c0.7-0.4,1.6-0.8,2-1c0.4-0.2,1.5-0.8,1.8-1c0.3-0.2,0.8-0.3,1.1-0.3s2.3-0.1,3.6,0
		c1.3,0.1,1.6,0.5,2.3,0.7c0.6,0.1,1.9,1,2.5,1s1.6,0.6,1.8,1.2s0,1.1-0.2,1.6s-1.1,0.8-1.2,1.1c-0.1,0.3-0.6,1.4,0.6,2.2
		s2.5,1.2,3.1,1.9c0.5,0.7,2.2,2.6,2.3,3.4c0.1,0.7,0.6,2.6,1,3.5c0.4,0.8,1.4,2.2,2.8,2.2c1.4,0,3.2-0.2,3.7-0.1
		c0.5,0.1,2.1,0.2,2.3,0.5c0.2,0.2,1.1,1,1.1,1l-0.2,0.4c0,0-0.4-0.2-0.9-0.3c-0.4-0.1-0.2-0.1-0.6-0.2c-0.4-0.1-0.5,0.2-0.5,0.2
		s0,0.5,0.4,0.6c0.4,0.1,1.3,0.6,1.3,0.6s0.7,0.6,1,0.7c0.3,0,0.9,0.2,0.9,0.2s0.5-0.3,0.1-0.6c-0.4-0.2-1.3-0.9-1.3-0.9
		s-0.4-0.2,0.1-0.2s0.5-0.2,0.9,0c0.4,0.2,0.5,1,0.5,1s0.6,0.4,0.9,0.7c0.2,0.2,1.8,1.4,2.8,3.4c1,2.1,2.5,6,2.5,6l-0.9,2.1
		c0,0-0.8-0.3-1.7,0.1c-0.8,0.4-1.6,0.9-2.9,2.4c-1.4,1.6-2.7,2.3-3.4,2.4c-0.6,0-1.4,0.4-1.8,0c-0.4-0.4-1.2-0.8-2-1.1
		c-0.7-0.3-1-0.1-1.3-0.2c-0.3-0.1-1.7-0.7-2.6-0.9c-0.9-0.2-2,0-2.6,0.4c-0.6,0.3-1.4,0.5-1.7,0.5c-0.3,0-1-0.3-1.5,0.2
		c-0.4,0.5-1.5,2.1-1.5,2.9c0,0.8-0.2,1.2-0.2,2.1s0.1,1.4-0.1,2.1c-0.2,0.7-0.3,1.8-1.5,2.7c-1.2,0.9-2.5,0.8-3.2,0.8
		c-0.6,0-2.2-0.1-3.1,0.2c-0.9,0.3-1.5,0.4-2,1.3c-0.5,0.8-1.1,2.1-1.5,2.7c-0.4,0.6-0.8,1.3-0.8,1.3s-0.2,1.1,0.2,1.3
		c0.4,0.2,0.6,0,0.9,0.1c0.3,0.1,0.6,0.2,1.2,0.7c0.6,0.5,1.1,0.9,1.4,1c0.2,0.1,3.5,2.7,4.3,3.3c0.7,0.6,1.7,1,2.2,1.3s2.8,2,2.8,2
		s3.8,3.5,4.9,4c1.1,0.5,3.6,4.1,4.5,4.8c0.9,0.7,2.2,1.9,3.4,3.4s11,12.5,11.7,13.7c0.7,1.2,12.2,17.3,17.2,28.4
		c5,11.1,16.7,39,16.9,39.7c0.2,0.7,14.6,34.9,15.5,37c0.9,2.2,1.9,4.7,3.7,4.1c1.8-0.6,1.5-2.7,1.5-4.1c0-1.3-0.9-47.8-0.9-51.2
		c0-3.3-0.4-18.3-0.4-19.7c0-1.4-1.2-8-1.7-9.2c-0.4-1.2-2.5-8-3.5-11.1c-0.9-3-2.2-10.1-3.8-12.9c-1.5-2.7-2.9-5.5-4.1-7.7
		c-1.2-2.2-6.4-9.7-6.4-9.7s-6.5-6.8-7.7-7.4c-1.2-0.6-5.6-5.6-6.7-6.4c-1.1-0.7-5.6-5.7-5.6-5.7s-2-2.2-3.5-3.7
		c-1.5-1.5-2.1-1.8-4.1-3.9c-2-2.1-2.9-5.1-3.8-7.2c-0.9-2.1-0.9-3-0.3-3.8c0.6-0.7,0.7-1.2,1.5-1.2c0,0,0.5,0.1,0.8,0.4
		c0.3,0.4,0.9,0.4,1.2,0.4s0.5,0,0.8,0c0.2,0,0.8,0.4,0.8,0.4l-0.4,0.8l0.9,0.5l0-0.2l-0.5-0.4l0.2-0.8l0.1-0.4c0,0,0.6-0.1,0.8-0.1
		s1,0,1,0l0.2,1.2l0.1,1.2l-0.7-0.5l-0.1,0.2l1.1,0.7c0,0,0-0.2,0-0.5c0-0.2-0.1-2.3-0.1-2.3s0.2,0,0.7,0c0.5,0,1.5,0.6,1.5,0.6
		l-0.2,2.4h0.4l0.2-2.4c0,0,1.8,0.6,2.2,0.9c0.4,0.2,0.4,0.2,0.4,0.2l-0.4,2l-0.3-0.2c0,0-0.4,0-0.4,0.3c0,0.3,0.2,0.8,0.2,0.8
		l0.2,0.6l0.1,0.2l0.6,0.5l0.9,0.1c0,0,1.3-1.5,1.6-1.8c0.3-0.3,0.9-0.7,0.9-0.7s2.4,1.5,2.7,1.8c0.2,0.3,0.6,0.9,0.8,1.1
		c0.2,0.2-0.5,0.7-0.5,0.7l-0.1,0.8l0,0.3l-0.4,0.7c0,0,0.2,0.4,0.4,0.6c0.1,0.2,1.2,1.1,1.2,1.1l0.3-0.2l0.5,0.6l0.3-0.2l0.2,0.3
		c0,0,0,0.5,0.4,0.5s0.7-0.3,0.7-0.3s0.4,0,0.6,0s0.5-0.5,0.5-0.5l0.4-0.1l1,1.1l-2.6,3.1l0.3,0.1l2.6-2.9l2.6,2.4l-3,3l0.4,0.1
		l2.9-2.9l2.2,2.2l-3.3,3.1l0.3,0.4l3.3-3.2l1.8,1.9l-3.4,3.2l0.3,0.2l3.5-3.2l0.7,0.8l-3.5,3.3l0.3,0.2l3.5-3.3l1.7,1.7l-3.6,3.4
		l0.2,0.2l3.6-3.3l1.7,1.6l-3.6,3.4l0.2,0.2l3.5-3.1l1.5,1.5l-2.9,3l0.5,0.6l3-3.2l1.7,1.7l-3.1,2.9l0.2,0.1l3.1-2.9l1.6,1.7
		l-3.2,2.9l0.2,0.2l3.2-2.9l1.7,1.7l-3.5,3l0.3,0.2l3.4-3.1l2.1,2l-3.5,3.7l0.3,0.2l3.5-3.7c0,0,0.8,0.9,1,1.2
		c0.1,0.3,0.2,0.5,0.6,0.6c0.3,0.1,0.9,0.5,0.9,0.5l-3.5,3.5l0.1,0.3l3-2.8l0.6,0.6l0.1,0.7l0.4,0.2l-3.5,3.5l0.4,0.3l3.7-3.8
		c0,0-0.4-0.5-0.7-0.8c-0.2-0.3-0.4-0.6-0.4-0.6l0.3-0.1c0,0,0.7,0.8,0.7,1.1s0.5,0.8,0.5,1.2c0,0.4-0.1,0.4,0.1,0.8
		c0.3,0.3,0.2,0.7,0.2,0.7l-0.9,1.6l-0.4,0.6l-0.7-0.4l-0.1,0.3c0,0,0.1,0.6,0.4,0.8c0.2,0.2,0.4,0,0.4,0l0.7-0.9l0.2,0.4l0.5-0.7
		l0.1,0.5l-0.2,0.2l0.2,0.1l-3,1.8l0.4,0.6c0,0,2.7-1.2,3.1-1.5c0.4-0.3,0.4-0.3,0.4-0.3l-0.5-0.7l-0.1,0l0-0.1l0.2-0.1l-0.1-0.5
		l0-0.4c0,0,0.4,0.1,0.4,0.4s0.5,1.3,0.5,1.3s1,2.2,1.3,2.7c0.2,0.5,0.1,0.6-0.1,0.5c-0.2,0-1.1,1.1-1.1,1.6c0,0.4-2.2,2.2-2.2,2.4
		c0,0.2,0.1,0.9,0.4,1.1c0.2,0.1,0.4,0,0.6-0.3c0.2-0.3,2.4-3.1,2.4-3.1l0.7-0.4l0.7,1.4c0,0-0.5,0.3-0.5,0.7c0,0.4-0.1,0.2,0.1,0.6
		c0.2,0.3,0.8,1.1,0.8,1.1l-1.5,2.2c0,0-1.3,2-1.3,2.2c0,0.2-0.4,0.1-0.1,1c0.3,0.8,0.4,1.4,0.7,1.1c0.3-0.3,0.9-1.7,0.9-1.7
		s0.8-1.4,1.2-1.8c0.4-0.5,0.9-1.5,0.9-1.5s0,0.2,0.4,1.2c0.4,0.9,1.8,3.9,1.9,4.2c0.1,0.2,0.3,0.9,0.5,1.4c0.1,0.5,1.4,3.5,1.7,4.3
		c0.3,0.7,1,2.2,1.3,2.4c0.2,0.2,0.7,0.3,0.7,0.3s0.5,0,1.1,0.7c0.5,0.6,0.2,0.7,0.3,1.4c0.1,0.7,0.7,4.8,1.1,6.7
		c0.4,1.8,0.4,2.3,0.4,2.8c0,0.4,0.3,54,0.3,54s1.5,4.3,5.7,2.8c4.2-1.5,6.8-2.4,7.5-3.4c0.7-1,3-3,3-3l0.1,0.1l2.2,3.7l6.1-2.1
		l-0.2-0.3l-5.8,1.8l-1.8-3.7l0-12l1.9,0l0.1,12.4h0.2l-0.1-12.4l2.2,0l0.2,12.6l0.2,0l-0.2-12.1c0,0,2.3,2.6,2.5,2.8
		s0.4,0.2,0.4,0.2v7.3h0.2v-7.2c0,0,2.2,0.6,2.7,0.5c0.5,0,1.9-0.2,2.2-0.4c0.3-0.1,2.5-0.1,2.9-0.1c0.4,0,2.4-0.1,2.4-0.1l0-0.2
		l1.3,2l0.2-0.1l-1.3-2c0,0,0,0,0.5-0.3c0.4-0.3,0.4-0.4,0.4-0.4l1.6,1.8l0.1-0.1l-0.4-0.6l3.1-2l-0.1-0.2l-3.1,2.1l-0.6-0.7
		l4.7-3.8l-0.2-0.1l-4.7,3.7l-0.1-0.5c0,0-0.3-0.7,0-0.8c0.4,0,0.9,0,1.1-0.2c0.2-0.1,1.7-1.3,1.7-1.3s0.5-0.6,0.7-1
		c0.1-0.4,0.2-1,0.8-2.3c0.6-1.4,0.4-1.3,0.5-2.1c0.1-0.7,0.2-0.7,0.6-0.8c0.4-0.1,0.6-0.1,0.9-0.6c0.3-0.4,0.5-1.8,0.5-1.8
		s-0.4-0.9-0.1-1.5c0.2-0.6,0.8-1,1.1-1c0.2,0,1.4-0.9,1.5-1.2c0.1-0.3,5.2-10.2,5.2-10.2l2.4,0.9l0.7-1.3l-2.4-0.7l0.6-0.3
		c0,0,1.2,0.1,1.4,0c0.2-0.1,0.7-0.5,0.4-1c-0.2-0.5-0.6-0.9-0.6-0.9s-0.7-0.7-0.5-0.7c0.2,0,0.8,0.3,1-0.4c0.2-0.7,0.2-1.3,0.2-1.3
		l2.3,1.2l-1.4,2.6l0.3,0.1l1.9-3.4l-0.4,0l-0.2,0.4l-2.8-1.5c0,0,0.6-0.9,0.8-1c0.2-0.1,1.2-1.1,1.2-1.1s0.5,0.1,0.5-0.3
		s0.1-0.4,0.1-0.4l1.4,1.9l0.1-0.2l-1.2-1.9c0,0,0-0.5-0.1-0.7c-0.1-0.2,0.1-0.6,0.1-0.6s0.3-1.7,0.6-2.3c0.2-0.6,1.3-2.3,1.9-3.1
		c0.6-0.8,1.2-2.5,1.7-2.9s2.8-2.7,2.8-2.7l0.1-1.6l0.2-0.1l0.1,1.6l0.6,0.6l-0.2,0.2l0.8,0.9l0.5-0.6l-0.6-0.6h0.2l0.7,0.6l0-0.1
		l-0.9-0.7l-0.5,0.2l-0.5-0.6l-0.1-1.7c0,0,0-0.3,0.5-0.3c0.4,0,1.5-0.5,1.5-0.5l1.4-0.8c0,0,0.9-0.3,1.2-0.4c0.3-0.1,1-1.2,0.8-1.3
		c-0.2-0.1,0.1-0.4,0.3-0.4c0.2,0,0.8,0.3,0.7,0.1c0-0.2-0.3-1.2-0.3-1.2s5.4-3.1,5.9-3.3c0.5-0.1,0.8-0.3,0.8-0.3l0.1-1v-1.3h0.5
		v1.8c0,0,0,0.4,0.2,0.2c0.2-0.1,0.6-0.4,1.1-0.5c0.4-0.1,0.4-0.1,0.4-0.1l0.4,1.7c0,0,0,0.4,0.5,0.4c0.6,0,2.3-0.8,2.3-0.8
		s0.1-0.2,0.1-0.9c0-0.7,0-0.7,0-0.7l1.3-0.1c0,0,0.2,0.6,0.2,1c0,0.3-0.3,0.5-0.3,0.5s-0.3,0.6,0.2,0.5c0.6-0.1,5.5-1.2,6.7-1.2
		c1.2,0,2.8,0.2,3.3,0.2c0.4,0,2.7,0.3,3.2,0.4c0.5,0.1,2.2,0.3,2.7,0.5c0.5,0.1,1.8,0.4,1.8,0.4l-2.8,1.4l0.4,0.7l3.4-1.8
		c0,0,1.6,0.4,2,0.8c0.4,0.4,1.3,0.5,1.3,0.5l-4.2,1.7l0.4,0.7l4.3-2.2l3.1,0.9l-4,1.9l0.4,0.5l4.5-2.2c0,0,1.7,0.7,2.3,0.9
		c0.6,0.1,1.1,0.2,1.1,0.2l-4.5,1.9l0.4,0.5l4.8-2.2l2.8,1.1l-4.1,2l0.9,0.6l4.5-2.2c0,0,1.7,0.6,2.1,0.6c0.4,0,0.6,0.8,0.6-0.5
		c0-1.3,0.1-5.8,0.1-5.8s-0.1-1.1,0.1-1.1s0.4,0.5,0.4,0.5s0.2,0.3,0.2,0.8s0.2,6.3,0.2,6.5s0.1,0.1,0.4,0.3
		c0.2,0.2,5.6,1.9,5.6,1.9s0.1,0.6,1.2-0.4c1.1-1,6.6-4.9,6.6-4.9s2.7-0.7,3.3-1.2c0.5-0.5,1.9-2.7,2.2-2.9c0.2-0.1,2.8-2.5,3.3-2.7
		c0.4-0.2,2.1-1.7,2.8-2.3c0.7-0.6,5.2-3.8,5.6-4.1c0.4-0.4,2.7-2.2,3-2.4c0.2-0.2,1.9-1.3,1.9-1.3l2,3l0.1-0.1l-1.8-2.9
		c0,0,0.9-0.6,1.4-1.1c0.5-0.4,1.1-0.8,1.1-0.8l2.2,2.3l0-0.2l-2-2.2c0,0,0.3-0.2,0.6-0.4c0.3-0.2,0.6-0.4,0.6-0.4l1.8,2.3l0.4-0.4
		l-1.7-2.2l1.5-0.9l0.7-0.6l0.7,0.7l-0.4,0.4l1,1.1l1.2-0.8l-1-1.1l-0.4,0.4l-0.6-0.9c0,0,0.8-0.4,1-0.6c0.2-0.2,2.2-1.3,3.1-2
		c1-0.6,3.7-2,4-2.1c0.2-0.1,0.8-0.3,0.8-0.3l0.4-0.1l1.6,2.6l0.3-0.2l-1.2-2.3l1.7-1.1l1.5,2l0.2-0.1l-1.4-2c0,0,1.1-0.8,1.5-1
		c0.4-0.1,1.3-0.2,2.2-0.6c0.8-0.4,1.8-1.1,2.3-1.3c0.5-0.2,1.6,0.4,2.2-0.2c0.6-0.6,1.1-1.3,1.7-1.3c0.6,0,11.7-3.5,12.8-3.8
		c1.1-0.4,2.4-1.1,2.6-1.2c0,0,2.3-0.7,2.8-0.7c0.5,0,1.3-0.5,1.3-0.5l0.6,2.8l0.3-0.3l-0.6-2.5c0,0,0.7-0.1,1.5-0.4
		c0.7-0.3,0.8-0.2,0.8-0.2l0.7,2.7l0.3-0.1l-0.8-2.7c0,0,0.6-0.2,1.1-0.2c0.4,0,1.1-0.4,1.1-0.4l0.8,2.5l0.5-0.2l-1-2.3
		c0,0,0.7-0.3,1.2-0.4c0.4-0.1,0.7-0.2,0.7-0.2l0.7,2.3l0.3-0.1l-0.7-2.3c0,0,0.5,0,1.4-0.5c0.9-0.5,2.1-0.6,2.1-0.6l1,2.3l0.3-0.2
		l-1-2.3c0,0,1.2-0.4,1.6-0.5c0.4-0.1,0.4-0.3,0.4-0.3l1.8,3.5l0.3-0.3l-1.9-3.3c0,0,0.4,0.1,0.7-0.2c0.2-0.4,1-0.8,1-0.8l2.1,2.6
		l0.4-0.4l-2.2-2.5c0,0,0.2-0.3,0.6-0.4c0.4-0.1,0.9-0.4,0.9-0.4l3.1,2.4v-0.2l-3.2-2.4l-0.6,0.4l-0.4-0.1l1.1-1.1
		c0,0,0.3-0.2,0.9-1.5c0.6-1.3,0.5-2,1.9-3.8c1.4-1.8,2.2-3.2,3.2-5.2c0.9-2,2.1-4,2.7-5.3c0.7-1.3,3.2-6.2,3.7-6.9s1.7-4,2.1-4.6
		c0.4-0.6,1.6-2.2,2.2-2.3c0.6-0.2,2.3-0.4,1.8-1.8c-0.5-1.4-0.7-2.1-0.5-2.7c0.2-0.6,0-2.1,1-3s2.3-2.3,2.8-3
		c0.5-0.7,1.7-6,2.7-7.6c1.1-1.6,2-7.4,2.8-8.5c0.8-1,1.2-3.2,1.8-4.2c0.6-0.9,1.4-3.9,1.4-4.7c0-0.8-0.1-3.5-0.3-4
		c-0.1-0.4,0.4-1-0.1-2c-0.5-1-2.2-3.6-2.7-4.6c-0.4-1.1-1.3-2.9-1.8-3.8s-1-2.1-1.1-3.6c-0.1-1.4-0.8-2.1-0.8-2.1s0-2.2,1-3.6
		c1-1.3,1.7-4.2,2-4.5c0.2-0.4,1.3-1.7,2.3-2.9c1-1.3,2.1-1.5,2.9-3c0.8-1.4,1.8-4.3,2.2-5c0.4-0.7,1.5-4.2,1.5-4.5
		c0-0.4,0.8-3.5,0.9-3.8c0.1-0.4,0.7-3,0.4-6.2c-0.4-3.1-0.6-5.1-0.5-6.1s-0.1-2.7-0.3-4.1c-0.1-1.4,0-5.9,0.3-7.2
		c0.3-1.3,0.7-3.2,1.3-3.8c0.6-0.6,0.3-1.4,0.5-2.4c0.2-1,1.1-4.3,1.4-5.1s0.4-4.6,2.1-6.2c1.6-1.6,2.6-3,3.5-3.4
		c0.8-0.4,2.1-1.4,2.5-1.8c0.4-0.4,1.8-2.3,2.2-2.9c0.4-0.6,0.5-0.9,1.2-3.4s0.6-2.6,1.2-3.6c0.6-1,1.7-1.8,2.7-3.4
		c1.1-1.7,1.1-2.9,1.8-3.7c0.6-0.8,2.1-2,2.7-2.6c0.6-0.7,2.3-2.1,3.8-3.1c1.5-1.1,3.2-1.4,3.7-1.4c0.5,0,3.8-0.1,4.5-0.1
		c0.7,0,3.6,0.5,3.9,0.7c0.3,0.2,0.6,1.8,0.6,1.8s0.7,1.6,1.5,0.9c0.7-0.7,1.1-1.7,1.1-2.8c0-1.1,1.2-0.3,1.7-1.3
		c0.4-1,1-1.5,1.4-1.8c0.4-0.2,2.5-3.4,3.5-5.3c1-1.9,1.9-4.3,3-6c1.1-1.7,4.1-6.9,5.6-9c1.5-2.1,0.8-2.4,1.4-4
		c0.6-1.6,0.5-2.8,1-3.4s1.1-2.3,1.2-2.8c0.1-0.4,0.7-3.3,0.5-5c-0.1-1.8-0.8-3.1,0.6-4.7c1.4-1.7,2.5-2.1,3.6-2.6
		c1-0.6,4.9-1.4,6.9-1.4c2.1,0.1,12.8,0.4,14,0.4c1.2,0,7.9-0.5,8.9-0.7c1-0.2,1.2-0.1,2.3-0.8s1.6-0.8,2.1-1.1
		c0.5-0.2,1.4-0.5,2.9-1.9c1.6-1.3,1.9-1.8,3.4-3.3c1.5-1.5,2.9-3.9,3.9-4.5s0.7-0.1,2.3-2.5c1.7-2.3,3.7-4.5,4.2-5.1
		c0.2-0.3,0.7-0.6,1.3-1.1L983.1,9.5L958.7-15.5L958.7-15.5z"/>
	<path class="st0" d="M1450.4,479.8c-1.5,1.6-3.4,3.7-3.9,4.2c-1.7,1.9-2.4,4-3.6,4.9c0,0-1.9,0.7-3.1,1.8c-1.2,1.1-6,5.8-6.6,6.5
		c-0.6,0.6-3.7,2.5-4.7,2.9c-1,0.4-9.6,0.8-11.3,1.1c-1.8,0.2-8.9-0.1-10.8,0.4c-2,0.5-2.4-0.4-4.3-0.1c-1.8,0.3-5.3,0.4-5.3,0.4
		s-2.5,1.4-3.4,2.8c-0.9,1.4-1.3,1.8-1,3.2c0.3,1.4,0.1,3.5,0.1,4.8c0,1.3,0,3.6,0,4.3c0,0.6,0.1,5-3.5,10.4
		c-3.6,5.4-5.6,9-6.5,10.2c-0.9,1.2-4,6-4.4,6.8c-0.4,0.8-0.8,4.5-0.8,4.5s-2.2,4.3-2.5,5.1s-0.5,2.2-0.6,2.7
		c-0.1,0.5-4.5,11.9-5.5,14c-1.1,2.1-2.5,6.1-3.6,7.8c-1.1,1.7-2.3,2.9-1,3.7c1.4,0.7,2.8,1.2,2.9,2.1c0.1,0.9,0.4,0.9,1.1,1.1
		c0.7,0.1,1.4,0.2,1.4,0.7s0,1.6-1.3,0.9c-1.3-0.7-1.5,0.5-2.5,0.4c-1.1-0.1-1.5-0.1-2.3,0c-0.9,0.1-2.3-0.2-3.1-0.2
		c-0.7,0-1.7,0.7-2.3,0.4c-0.6-0.2-3.7,5.3-5,7.2c-1.3,1.9-2.4,5.5-2.3,7.1c0.1,1.6,1.8,3.5,2.8,6.6c1.1,3.1,1.4,2.4,0.9,4.7
		c-0.5,2.2-0.7,3.9-0.4,5.8s1.1,2.4,1.2,4c0.1,1.6-0.3,3.5-0.6,5.4c-0.3,2-0.1,3.1-0.5,5c-0.4,1.9-0.3,5.9-1.9,10
		c-1.6,4.1-1.3,3.9-1.8,5.7c-0.4,1.8-4.1,19.5-5.3,22.2c-1.2,2.6-3.6,11-9.9,17.6c-6.3,6.7-6.1,6.5-7.2,6.7
		c-1.1,0.2-1.6,0.5-1.6,1.1c0,0.6-0.7,1.8-1.7,2.8s-3.2,3.5-4.1,4.5s-5.9,4.7-7.3,8c-1.4,3.2-6.4,10.8-7,13.3
		c-0.7,2.4-4,6.9-4.7,8.7c-0.7,1.8-2.4,3.5-3.3,4.4c-0.8,0.9-5.6,2.9-8.6,4.4s-24.4,9.4-32.6,13.1c-8.2,3.7-16.4,7.9-22.6,12.4
		c-6.2,4.5-14.8,9.8-17.5,11.6s-5.3,3.9-6.5,5c-1.2,1.1-4.4,4.2-5.2,5.1c-0.9,0.9-5.5,5.1-9.2,6c-3.7,0.9-9.3,2-13.1,0.6
		c-3.8-1.4-14.5-4.7-16.6-5.5c-2.1-0.8-5.8-2.1-7-2.6c-1.3-0.5-5.6-0.4-7.8,0.7c-2.2,1.1-5.4,3.8-6.4,5.5
		c-0.9,1.8-7.5,15.8-8.3,17.1c-0.7,1.4-10.3,20.1-11.2,21.6s-6.2,7.7-9.1,9.4c-2.9,1.8-19.1,12-20,12.6c-0.8,0.6-1.3,1-1.3,1
		l-0.9-1.3l5.2-3.5l-0.3-0.3l-5.5,4l1.2,1.8c0,0-0.7,0-1.1,0.3c-0.4,0.3-0.2,0.7-0.4,1.1c-0.1,0.4-2.4,3.3-2.8,3.6
		c-0.4,0.3-0.4,0.4-0.4,0.4l-1-0.7c0,0-3.1,2.6-6.2,10.5c-3.1,7.9-5,11.3-5.4,13.2c-0.4,1.9-8.9,22.3-9.4,23.4
		c-0.5,1.1-3.2,8.4-3.3,8.9c-0.1,0.5-3.3,8.6-4.1,9.9c-0.7,1.4-1.8,2.4-1.8,2.4s-0.3,0.8-0.4,1.8c-0.1,1-0.6,3.2-1.4,4.7
		s-1.5,2.4-1.8,2.6s-0.1,0,0,0.3c0.1,0.3,0.2,0,0.1,0.8c-0.1,0.7-3.1,13.7-3.4,15.1c-0.3,1.4-2.6,9.2-3.2,10.9
		c-0.6,1.7-1,5.6-1.3,6.5c-0.3,0.9-3.6,19-4.3,22.3c-0.7,3.2-1.9,7.4-1.9,8.2s-0.2,2-0.3,2.8s-1,3.6-1.8,5.4
		c-0.7,1.9-0.7,1.9-0.7,1.9h-0.7v0.8l1.9,0.5l0.5-1.1l0.1-0.7l3.8,1.1v2.2l-0.1,1.8l-0.4,1.3l-1.3,4.4c0,0-1.7-0.1-2.1-0.2
		c-0.4-0.1-1.5-0.1-1.5-0.7c0-0.5,0.5-3.9,0.5-4.4c0-0.5-0.1-2.5-0.1-2.5s-1.2,0-1.5,0s-0.3,0.5-0.3,0.5h0.6c0,0,0,0.7,0,2.1
		s-0.4,4-0.4,4.4c0,0.4-0.5,2.2-0.8,2.6c-0.2,0.4-1.3,2.7-1.4,3.3c-0.1,0.6-1.3,3.2-1.3,3.7c0,0.4-0.4,0.7-0.1,1.4
		c0.2,0.7,0.8,0.8,0.8,1.7c0,0.8-0.8,1.3-1.1,2.1c-0.4,0.7-1.5,3.2-1.5,3.2s-0.4,0.6-0.9,1.6c-0.5,1-1.1,3.2-1.1,5s-0.2,2.6,0.6,2.9
		s-0.2,0.5-0.2,1.2c0,0.7-0.4,1.4-0.4,1.8c0,0.4-0.1,1.8-0.3,2.6c-0.1,0.9-0.8,2.7-1.1,3.6c-0.3,0.8-1.5,7-1.4,8.3s-0.3,4.1-0.3,4.8
		c0,0.7-1.3,18.8-1.3,19.1c0,0.4,0,0.7,0,0.7l-11.2,0.1v-0.4h-0.9v-0.7l-1,0.1v2.5l0.9-0.1l-0.1-1l12.3-0.2c0,0-0.3,2.7-0.3,4.4
		s-0.8,8.6-0.8,9.8s-0.5,7.9-0.4,8.9c0.1,1.1,0,1.4,0,1.8c0,0.4,0.7-0.2,0.7,0.1c0,0.3,0.4,1.8,0.4,2.5c0.1,0.7,0.2,1.5-0.1,2.3
		c-0.3,0.7-0.2,0.7-0.3,2.1c-0.1,1.3-0.4,3.9-1.5,4.9s-4.2,4.1-4.2,4.1s-1.2,0.8,0.8,2.9c2,2.1,3.5,2.9,4.1,3.3
		c0.6,0.4,3.2,2.5,3.6,4.2c0.4,1.7,2.2,7.6,2.2,7.6s-0.8,0.3-1.1,0.2c-0.4-0.1-0.5-0.2-0.5-0.2l-1.8-5.8l-1.1,0.5l6.1,20l1.3-0.5
		l-1.9-6.5l0.8-0.2c0,0,1.2,4.6,1.4,5.5c0.1,0.9,1.4,2.2,2.5,2.9s7.1,2.2,8.1,2.6s3.8,1.6,3.8,1.6s0.5,0.2,0.5,1.1
		c0,0.6,0,2.6-0.1,4.5l4.1,1.5c0-0.3,0-0.5,0-0.8c-0.1-2.4-0.2-5,0-5.7c0.1-0.7,0.2-2.2,0.5-2.4c0.3-0.1,0.2-0.2,0.8-0.2
		c1.5,0.4,4.7,1.5,9.5,2.1c4.7,0.6,14.4,1.6,14.4,1.6s2.7,0,3.6,0.2c0,0,0.1,0,0.2,0l48.4-48.8c0-2,0.1-4,0.2-2.7
		c0,0.6,0.1,1.5,0.1,2.3l480-484L1450.4,479.8L1450.4,479.8z"/>
</g>
<g id="trail-path" class="st1">
	<path class="st2" d="M999.6,512.7c-12.6,1-12.6,15.6-21,24.9c-3.3,0.8-6.5,1.6-9.8,2.4c0,2,0,3.9,0,5.9
		c-7.1,5.7-14.1,9.7-22.3,13.5c-24,11.2-51,19.8-73.4,33.7c-18.8,11.6-23.3,10.6-45.4,7.3c-8.5-1.3-20.1,13.3-29.1,18.8
		c-10.5,6.4-12,20.4-10.5,32.1c1.9,14.2-1.7,21.2-2.5,34.1c14.6-15.8,29.5,1.4,44.9-9.1c4.4-3,17.2-11.6,20.4-9.7
		c10.1,5.9,16.6-11,24.9-11.5c3.4-0.2,14.6,8.3,22.2,8.3c8.2,0,16.4,0.2,24.6,0c14.9-0.3,33.6,3.5,47.9-1.1
		c15.8-5.1,30.9-14,46.5-3.3c21.3,14.5,26.3,13.2,50.9,7.2c22-5.3,32.3-7,37.8-30.4c2.3-9.7-3.2-13.1,8.6-13.7
		c6.6-0.3,16.3-14.8,21.1-19.8c14.6-15.3,17.8-21,29.5,0.4c2.8,5.2,14.6,2.2,20.5,5.1c7.6,3.8,13-18.4,14.1-24.4
		c3.1-15.5,27.5-22.6,36.8-31.9c10.6-10.6,28.3-25.7,42.2-30.3c18-6,21.3-25.7,37.1-33.6c13.4-6.7,37.1-16.5,40.5-35.2
		c2.2-12.1-9.5-29.3,1.4-39.2c16.1-14.5,33.4,10.1,47.2-11.7c0.2-0.4,61,64.8,91.7,150.7c36.4,101.6,43.6,226.7,43.9,226.2"/>
</g>
<g id="camera-path" class="st1">
	<path class="st3" d="M1029.1,478.1c0,0-280.5,125.2-251.4,200.1c15.5,39.7,127.7-9,169.5-17.2c53.1-10.5,156.5-46.3,204.4-71.7
		c69.9-37.1,178-209.9,254.3-188.7c95.8,26.7,132.3,375.2,132.3,375.2"/>
</g>
<g id="points" class="st1">
	<circle id="Home" class="st4" cx="1000.2" cy="511" r="5.8"/>
	<circle id="Georgeotwn University" class="st4" cx="785.9" cy="686.8" r="5.8"/>
	<circle id="DC Schools" class="st4" cx="948.2" cy="663.4" r="5.8"/>
	<circle id="ECON 542: Poverty" class="st4" cx="1151.5" cy="589.2" r="5.8"/>
	<circle id="Homeless Shelter" class="st4" cx="1405.8" cy="400.6" r="5.8"/>
	<circle id="Mentor" class="st4" cx="1539.7" cy="777.9" r="5.8"/>
</g>
<path class="st5" d="M1578.5,82.7c-4.9,11.1-13,17.7-13.9,30.2c-1,13.7,9.2,14.7,3.1,32.8c-6.1,18-20.1,36.5-30.5,53.7
	c-11.9,19.8-16.3,44-30.6,62.2c-11.6,14.8-61.9,40.8-64.4,58.3c3.4-25-73.8-44.8-83.7-54c-9-8.3,0.7-12.5-13-18.4
	c-1.6-0.7-12.7,9.6-17.6,8.9c-8.5-1.2-29.9-16.8-29.8-16.7c-11.7-16.8,8.5-66.9,21.4-84.4c-15,18.2-11.7,41.8-25.1,62
	c-1.4,1.6-5.5-3.6-5.6-3.7c9.1,8.4,0.7,19.4,15.6,31.5c14.3,11.6,25.1,4.9,36,8.2c3,0.9,6.6-6.2,13.1-2.8
	c4.4,2.3,6.1,19.5,13.2,24.7c10.3,7.6,23.3,7.1,36.9,13.4c7.9,3.7,19.2,9.9,24.9,16.2c9.1,10.1,6.2,15.9,10.7,25.4
	c6.9,14.7,18.5,28.3,23.6,44.9c3.8,12.3,13.6,67.5,5.2,76c0-5.9-8.4-13.4-14.5-12.2c31.1,7.8-4.8,50-20.2,57.3
	c-17.9,8.4-26.8-0.3-39.2,13.8c-8.7,9.9-9.4,29.8-20.5,39.6c1.8-1.7-16.7,0.4-21.1,3.9c-3.8,3-9.8,15.2-11.7,19.2
	c-8.4,17-15,45.4-17.5,63.4c-2.9,20.1,3.2,32.1-5.5,53.7c-5.8,14.3-14.8,29.8-23.6,44c1.2,0.7,2.9,0.8,4.2,2.4
	c-0.8-0.2-9.6-4-2.9,1.4c-0.2-0.1-3.9-1.6-3.8-1.6c0.6,1.1,1.3,2.3,1.9,3.4c-5.7-2.1-6.3-1.2-9.1,2.1c-4.7-3.2-0.3-1.7-3,1.2
	c-3.9-4.7-0.4-1.4-2.8,0.7c-9.8-3.3-31,7.4-31.5,12c-4,0-3.5-0.1-11,2.5c0,0.3,2.3,1.5,2.1,1.7c-1.2,0-2.6-1.4-2.5-1.4
	c-2.3,3.2-0.9,0.4-0.9,4.2c-4.2-2.6-1.9-2.6-1.2,0.9c-5.9-2.9-2.5-1.2-3,2.6c-8.8-1.8-14.2,9.9-24.3,14.3
	c-16.4,7.1-9.3-4.8-14.8-4.8c8.5,0-11,11.5-8.4,8.6c1.4-0.7,2.7-1.3,4.1-2c-5.1,0.6-10.9,3.1-3.5-1.3c-3.1,0.1-5.8-0.6-8.4,0.6
	c1.3-0.6,2.7-1.3,4-1.9c-4.6,0.2-3.2,0.2-7.5,1.2c0.7-0.7,1.8-1.3,3.8-2.4c-3.8-1.5-3.5,0.3-6.8,0.5c-1-1.3-0.2-2,2.5-2.1
	c-13.2-2.7-20,0.7-25.2-3.5c-5.9,4.7-10.2,10.3-11,14.1c-1.9-0.3-0.2-1.3-0.3,0c-1.2,0.4-2.1-1.2-2.1-2.6c-3.9,5.9-5.1,10.7-6,16.4
	c0.1,0-1.8-2-4.1,0.9c10.7,10.2,0.9-0.7,3.5,1.1c0.3-0.1-2.2,3.7-2.2,3.4c2.2-2.1,1.9-3.4-0.9-3.9c-0.8,6.9-10.9,20.2-18,31.7
	c1.7-0.7,3.3-2.9,5-3.6c-1.6,1.3-3.2,2.6-4.8,3.9c1.7,0.3,1.7,0,3.8-1.4c-4.9,2.3-2.6,2.3-4.2,4c0.4-0.1-10-1.6-11.6-1.6
	c0,2.4,0,4.9,0,7.3c-0.2-0.8-3.1-9.8-3.2-10.6c0.3,3.2,0.6,9.2,0,12.4c-0.2-4.8-2.1-11.3-2.5-12.9c0,4.2,0.1,8.4,0.1,12.7
	c-0.1-2.4-2.2-12.8-2.2-12.7c5.3,18.1-2.5,8.6,7.9,14.4c-25.5-3.2-23.8,11.6-25-30.4c-0.5-19.5-0.7-31.6-9.5-48.4
	c-1.1,0.3-2.3,4.3-3,5c1.6-1.6,0.5-8.3,1.1-10.4c-0.8-0.7-2.9,4.6-3.8,3.9c3.8,2.3,0.9-9.9,0.7-10.3c-0.6,1.1,0.6,1.1,0.7,1.9
	c-1,0.8-2.2,1.4-3.5,1.8c0.2-0.5,3.3-2.1,2.5-3.3c-0.1-0.1-1.5,1.4-1.8,1.1c1.7,1.4-0.2-6.6-0.2-6.8c0.3,0.5,0.7,1,1.1,1.5
	c-1.3,1.3-2.5,2.6-3.8,3.9c0.1-0.3,1.9-3.9,3.1-3.9c-0.1,0-1.2-1.6-1.2-1.5c-0.3,0.2-3.2,2.5-3.2,2.5c1.2-1.2,2.3-2.4,3.5-3.5
	c-0.6,0-2.4-2-2.5-2.3c-1.4,0.8-2.4,3.3-3.8,3.5c1.2-1.3,2.4-2.5,3.6-3.8c-2.2,0.3-2.9,0.2-5.9,0.9c1.2-1,2.4-2,3.6-3
	c-3.7-0.4-1.4,0.3-5.2,1c1.1-1,2.2-2,3.3-2.9c-0.8-0.1-5.1,1.1-5,1.1c1.1-1,2.1-2,3.2-2.9c2.7-0.4-7.2,1.2-4.8,1.5
	c-0.3-2.2,1.3-2.8,0.9-5.2c-0.8,0.4-2.9,3.1-3.8,2.9c1.2-1.1,2.4-2.3,3.6-3.4c-3.4-0.3-2.2,1.2-5.6,1.6c1.2-1.2,2.4-2.3,3.6-3.5
	c-2.4,0.1-2.4,0.7-5.5,1.4c0.5-1.5,2.6-3.2,2.9-4.1c-1.4,0.9-2.6,2.6-3.8,3c1.2-5.2,1.7-0.1,1.7-5.2c-1.1,1.1-2.2,2.2-3.3,3.2
	c0-1.6,0.8-4.3,0.8-5.8c-1.5,0.6-1.8,2.7-3.4,2.8c1-1,2-2.1,3.1-3.1c1.1,0-6.1,0.5-5.4,0.5c0-1.7,1.5-2.6,1.3-4.5
	c-6-2-10.4-5.3-11.7-9.1c-4.6,0.8-1.7,1.9-5.3-1.7c0.1,1,0.2,1.9,0,2.9c-2.1-2.4-0.9,0-0.2-0.4c0-0.8-0.1-1.6-0.3-2.4
	c-3.1-0.2-0.9,1.4-1.6,2c-0.4-0.1-2.7-1.9-4.1-2.6c2.5,0,41.2,59.4,44,67.6c4.4,12.7,16.3,97,5.9,100.3
	c-1.9,0.6-46.4-100.2-50.3-105.8c-5.8-8.4-38.7-32.4-40.4-40.5c-1.1-5.3,14.3-15.3,18.8-19c-4.7,3.9,37.4-16.3,9.2-16.3
	c0,0,1.3,1.9,1.1,1.7c-1.1-0.4-2.7-1.9-3.6-2.1c0.5,0.1,2.2-0.1,2.2-0.1c-22-4.7-10.1-22-31.9-15.6c-34.4,10.1,14.5,42.2-1.1,46.8
	c-17.9,5.3-65.8-65.5-71.6-80c-6.5-16-0.4-45.1-14.1-51.6c0,0,1.5,2.3,1.4,2.3c-26.1-27.4-81.1-29-111.9-32.4
	c-33.2-3.7-74.4-18.5-96.2-45.5c-10.8-13.4-12.7-24.4-15.2-44.4c-0.1-1-2.1,1.3-3.1-0.5c-0.6,1.2,2.8-2.7,2.1-2.4
	c-5.9,2.4-39.3-26.6-39.3-31.3c0,1.1,2.3-0.2,2.6-0.6c-10.2,7.7-45.9-67.9-47.4-76.7c-7.1-0.8-18.3-9.8-13.2-19.5c0,0-1,6.5-1.5,4.6
	c2.9,1.8,0.2,0,2.4,3c-0.7-0.9,3.7-3.3,3.7-0.5c-0.9-0.2-0.9,0,0,0.6c1.8,0-17.6-25-20.2-29.2c-3.1-4.8-18.8-15.4-10.2-23.9
	c4.7-4.7,20.2,32.7,24.4,38.1c15.4,19.8,33.6,30.7,45.6,54.2c11,21.5,20.7,36.1,37.1,53.6c34.5,36.8,41.2,85,90.1,107.7
	c35.8,16.6,92.2,17.4,134,17.1c-67.3-7-147.7,1.7-186.1-67.2c-19.4-34.9-48-61.7-66.4-96c-15.9-29.6-30.2-48.2-53.1-72
	c-7,9.6-10.8-31.1-13.3-38.4c-6.5-18.3-21.2-37.5-30.2-55.8c-5-10.1-7-21-14.5-30.8c-10.1-13.1-28-19.4-34.7-35.4
	c-0.4,0.9-1.4,0.1-2.5-1c0.8,1.5,7.5,10.9,4.5,11.6c-6.6,1.5-27.7-23.8-29.9-28.3c-2.9-5.8-31.7-24-42.8-14.7
	c-1.3,1.1,6.7,1.4,6.9,1.4c0.8,0-1.3,1.9-0.6,2.2c-7.4,1-25.6,2.5-32.3-4.2c0.2,0.2,13.5,0.2,13.5-1.1c0,2.9-30.1-5.4-33.3-6.6
	c2.9,1.2,9.2,3.4,11.6,5.8c-3.8-3.8-32-5.5-39-3.2c0.2-0.8,11.7-2.3,11.7,0.1c0,7.1-20.2-2.3-11.8,24.1c21.5-9.5,29,1.3,48.5,6.2
	c18.7,4.6,38.8-1.3,58.2,8.7c31.3,16.2,63.3,69.5,76.8,100.5c7.9,18.2,14.1,39.9,25.2,55.4c16.2,22.7,39.5,37.4,53.4,63.2
	c11.7,21.7,21.3,37.4,37.8,57.2c18.2,21.8,24.5,48,40.3,69.9c31.7,44.1,75.3,54.2,123.6,61.4c48.2,7.2,52.5,35.3,65.2,77.8
	c3.1,10.5,5.3,22.1,11.4,34.3c9.6,19.2,14.6,19.3,26.7,29c10,8,19.2,11.7,24.7,26.9c3.8,10.2-5.1,30,12.8,32.2
	c28.3,3.5-5.3-31.8,21.6-22.8c8.1,2.7,19.3,21.1,22.8,26.8c3.8,6.1,24.7,59.3-8,46c-15.4-6.3,5.7-13.6,5.9-25.4
	c0.5-26.5-9.3-4-17.2-1.8c0.7-0.2-0.1-2.4-0.3-1.9c0.1,0.3-22.6,49.7-11.8,47c5.8-1.5,6.1-15.3,11.5-16.3c7.4-1.3,6.9,3.3,13.7,3.4
	c15.6,0.3,7.6-2.1,19,9.2c19.5,19.1,26.4,51.7,26.2,80.1c-0.1,23.5-18.3,99.1-56.3,56.6c-15.4-4.9-38.5,0.7-57.2-3.6
	c-14.7-3.4-26.2-20.6-40-23.5c-9.8-2.1-11.9,3.3-21.6,3.7c-18.8,0.8-35.4-0.1-55.5,1.5c-41.6,3.3-56.2,13.3-93.6-14.4
	c25.2,18.7,41.5,25.1,69.6,19.7c15.1-2.9,30.3-3.4,46.1-3.7c13.6-5.4,95.2-1,79.1,23c11.7-8.4,53.4,5.6,60.1,0.3
	c0,0,7.5,59.5,17.8,57.6c3.7-0.7-1.9-8.5-2.1-8.6c-1.3-5.2,8.1,2.6-0.3-0.9c-0.2-1.6,0.7-2.2,2.8-1.8c0,0-3.1-1.8-3.7-2.5
	c11.9-1.2,15.8,4.4,17.6,2.9c21.1,24.3-3.4,53-4,70.4c-0.4,11.1,12.9,53.3,15.6,62.8c-3,2.8-0.1,2.3-2.8,6.7
	c-0.5-0.2-1.4-4.6-1.8-5.1c1.8,2.1-10,17.2,4,16.8c-2.7,4.1-7.9,12.7-7.9,20.2c0-0.2,4.7-1.3,4.8-1.3c1.6,0.3-3.7,1.8-3.7,1.8
	c4,3.3-0.9,0.9,3.3,3.3c-0.3,0.1-3.5-0.4-3.5-0.9c0,0.5-0.3,0.8-0.8,0.7c0.9,0,3.5,3.7,3.6,4.4c0.1,0.5-4.2,0.4-4.6,0.8
	c-0.5,3,3.5-0.2,4.6,2.3c-0.8-1.5-5.3-0.3-6.2,0.4c1,0,3.8,1.4,5.4,1.4c-2.4,0-2.5,0-0.9,1.8c0.2,0.2-4.3-1-4.3-0.1
	c0,1,4.2,8.4,4.2,9.8c0,0.3-4.4-1.8-2.6,1.6c0.4,0.9,4.1,1.6-2.7,0.7c1.2,1.6,0.9,4.9,3.2,5.7c-2.6,6.2-13.8,17.1-12,21.7
	c2.7,6.1,24,44,2.3,50.7c-12.2,3.8-4.1-10.8-10.7-11.4c-9.9-0.9-12.1,1.1-20.2,2.5c-14.8,2.6-27.7,21.1-26-11.7
	c-19.2,20.2-72.1-26.6-98.1-32.5c-15.1-3.4-32.6,1.2-46.2-4.7c-14.6-6.3-19.6-18-32.4-22.6c-45.8-16.5-125.2,6.4-134.3-66.8
	c-2.6-10.6-46.9-25.3-56.2-34.6c14.1,14.2,34,17.5,48.5,30.5c11.3,10.2,13.1,24.8,21.4,38.2c-8,1.5-24,8.8-29.9,8.8
	c8.2,0,18.2-9.5,26.3-8.2c14.6,2.4,26.6,19.7,43.1,24.1c22.9,6.1,48.7,4.1,72,9.6c16.3,3.8,16.3,8.6,28.7,14.8
	c18.1,9.1,27.7,6.4,47,9.9c29.8,5.4,61.8,25.2,87.2,41c34.7,21.6,21.2,11.6,16,40.4c-2.8,15.6,8.5,45.8,24.9,53.7
	c16.6,8.1,86.3,7.5,103.5,0.9c10.4-4,8.1-9.6,15.9-13.5c5-2.5,15-2.2,20.4-6.5c6.1-4.9,33.3-42,33.3-49.7c-3.5,0.8-2.1,0.3-6,0.8
	c0.3-0.2-1.5-1.3-0.8-1.2c2.8-0.8,4.1-1.3,6.4-2c-0.1-1.1-0.4-2.1-0.8-3.1c-0.6-0.1-3.3,3.7-2.9-0.2c0.7-2.1,1.4,1.8,2.9,0
	c-12.4-22.8-18.3-21.9-42.7-23.1c3,0.1,10,10.9,5.2,12.5c-8,2.7-29.2-30.2-21.6-34c12.7-6.4,11.1,22,29.1,6.4c5-4.4,4.7-2.6,2.7-9.9
	c-5.5-20.4-14.5-9.8-19.7-9.8c-0.6,0-2.3-7.9-2.4-9c-2-0.9-1.4,2.4-1.2,2.9c-2.8-11.3-4.2-40.4,9.9-51.4c1.1-0.9,14.4,15.6,16,16
	c16.2,3.5,17.1-4,27.6-14.7c20.7-21.2,33.1-50.1,59.1-63.2c-3.2,1.6-15.9,6.8-19.4,6.8c-0.7,0-1.2-12.5-1.2-12.6
	c2.3,24.3-7,45.5-32.1,52.3c-10.8,2.9-14.5-1.9-26.6-0.6c-3.7,0.4-20-0.5-20.1-0.5c-2.1,0,3.8,14.3-3.3,12.9
	c6.3,0.8-18.4-26.4-18-26.1c0.1,0.4,0.9,8.1,0.6,7.1c-2.2-6.7-4.2-13.6-6.1-20.3c0.2,0.2,4,4.6,4.7,5.4c-12.5-13.5-7.2-40.2-4.2-60
	c-4,0-9.9,0.4-12.3,1.2c12.6,1.9,13-18,15.9-37c2.3-14.7,7.5-27.4,8.9-42.3c-0.7,0.2-0.8,0-0.3-0.5c3.2,0,1.1,4.6,1.1,7
	c1.1,0.7,2.3,1,3.7,0.9c-2.1-11.5,1.8-4.9-4.5-9.8c20-51,20.9-129.8,62.3-165.6c-2.1,2-3.8,4.1-4.4,4.9
	c20.4-12.7,28.7-21.7,40.6-42.5c16.5-28.9,14.5-20.6,43.7-20c28.5,0.6,42.4-20.3,67.4-33.9c19.7-10.7,43.1-14.3,58.4-30.4
	c20.3-21.4,43.1-58.1,48.7-86.4c2.6-13.1,0.4-27.4,2.7-39.4c1.4-7.6,3.1-14.2,5.8-21.5c0.4-1.2,10.5,1.6,10.5-1.3
	c0-21.2,10.1-36.8,19.7-59.8c6.2-14.7-0.3-19.4,13.2-26.4c11.5-6,24-1,36.5-9.2c49.9-32.9,14.1-72.3,29-114c-0.2,0.1-1.2,1.5-2,0.2
	c2.9-3.7-7-15-7.3-28.2c-9.4,7.1-23.3-15.1-19.1-30c3.2-11.3,14.8-14.3,23.6-21.4c27.8-22.6,45.9-42.8,60.6-75.3
	c6.7-14.8,20.8-28.6,26.3-40.1c3.5-7.3,0.8-15.9,4.4-23.2c1.8-3.6,10.9-13.7,11.4-15.1c4.2-13.8-3.4-21.4-3.3-29.7
	C1566.3,102.3,1572.4,96.4,1578.5,82.7z"/>
</svg>
